#N canvas 396 23 795 547 10;
#X obj 20 12 hsl 653 8 0 1 0 0 empty r-grain-1 empty -2 -8 0 10 #fcfcfc #000000 #000000 0 1;
#X obj 20 20 hsl 653 8 0 1 0 0 empty r-grain-2 empty -2 -8 0 10 #fcfcfc #000000 #000000 0 1;
#X obj 20 28 hsl 653 8 0 1 0 0 empty r-grain-3 empty -2 -8 0 10 #fcfcfc #000000 #000000 0 1;
#X obj 20 36 hsl 653 8 0 1 0 0 empty r-grain-4 empty -2 -8 0 10 #fcfcfc #000000 #000000 0 1;
#X obj 20 44 hsl 653 8 0 1 0 0 empty r-grain-5 empty -2 -8 0 10 #fcfcfc #000000 #000000 0 1;
#X obj 20 52 hsl 653 8 0 1 0 0 empty r-grain-6 empty -2 -8 0 10 #fcfcfc #000000 #000000 0 1;
#X obj 20 60 hsl 653 8 0 1 0 0 empty r-grain-7 empty -2 -8 0 10 #fcfcfc #000000 #000000 0 1;
#X obj 20 68 hsl 653 8 0 1 0 0 empty r-grain-8 empty -2 -8 0 10 #fcfcfc #000000 #000000 0 1;
#X obj 20 76 hsl 653 8 0 1 0 0 empty r-grain-9 empty -2 -8 0 10 #fcfcfc #000000 #000000 0 1;
#X obj 20 84 hsl 653 8 0 1 0 0 empty r-grain-10 empty -2 -8 0 10 #fcfcfc #000000 #000000 0 1;
#X obj 20 92 hsl 653 8 0 1 0 0 empty r-grain-11 empty -2 -8 0 10 #fcfcfc #000000 #000000 0 1;
#X obj 20 100 hsl 653 8 0 1 0 0 empty r-grain-12 empty -2 -8 0 10 #fcfcfc #000000 #000000 0 1;
#X obj 20 108 hsl 653 8 0 1 0 0 empty r-grain-13 empty -2 -8 0 10 #fcfcfc #000000 #000000 0 1;
#X obj 20 116 hsl 653 8 0 1 0 0 empty r-grain-14 empty -2 -8 0 10 #fcfcfc #000000 #000000 0 1;
#X obj 20 124 hsl 653 8 0 1 0 0 empty r-grain-15 empty -2 -8 0 10 #fcfcfc #000000 #000000 0 1;
#X obj 20 132 hsl 653 8 0 1 0 0 empty r-grain-16 empty -2 -8 0 10 #fcfcfc #000000 #000000 0 1;
#X obj 20 140 hsl 653 8 0 1 0 0 empty r-grain-17 empty -2 -8 0 10 #fcfcfc #000000 #000000 0 1;
#X obj 20 148 hsl 653 8 0 1 0 0 empty r-grain-18 empty -2 -8 0 10 #fcfcfc #000000 #000000 0 1;
#X obj 20 156 hsl 653 8 0 1 0 0 empty r-grain-19 empty -2 -8 0 10 #fcfcfc #000000 #000000 0 1;
#X obj 20 164 hsl 653 8 0 1 0 0 empty r-grain-20 empty -2 -8 0 10 #fcfcfc #000000 #000000 0 1;
#X obj 20 172 hsl 653 8 0 1 0 0 empty r-grain-21 empty -2 -8 0 10 #fcfcfc #000000 #000000 0 1;
#X obj 20 180 hsl 653 8 0 1 0 0 empty r-grain-22 empty -2 -8 0 10 #fcfcfc #000000 #000000 0 1;
#X obj 20 188 hsl 653 8 0 1 0 0 empty r-grain-23 empty -2 -8 0 10 #fcfcfc #000000 #000000 0 1;
#X obj 20 196 hsl 653 8 0 1 0 0 empty r-grain-24 empty -2 -8 0 10 #fcfcfc #000000 #000000 0 1;
#X obj 20 204 hsl 653 8 0 1 0 0 empty r-grain-25 empty -2 -8 0 10 #fcfcfc #000000 #000000 0 1;
#X obj 20 212 hsl 653 8 0 1 0 0 empty r-grain-26 empty -2 -8 0 10 #fcfcfc #000000 #000000 0 1;
#X obj 20 220 hsl 653 8 0 1 0 0 empty r-grain-27 empty -2 -8 0 10 #fcfcfc #000000 #000000 0 1;
#X obj 20 228 hsl 653 8 0 1 0 0 empty r-grain-28 empty -2 -8 0 10 #fcfcfc #000000 #000000 0 1;
#X obj 20 236 hsl 653 8 0 1 0 0 empty r-grain-29 empty -2 -8 0 10 #fcfcfc #000000 #000000 0 1;
#X obj 20 244 hsl 653 8 0 1 0 0 empty r-grain-30 empty -2 -8 0 10 #fcfcfc #000000 #000000 0 1;
#X obj 20 252 hsl 653 8 0 1 0 0 empty r-grain-31 empty -2 -8 0 10 #fcfcfc #000000 #000000 0 1;
#X obj 20 260 hsl 653 8 0 1 0 0 empty r-grain-32 empty -2 -8 0 10 #fcfcfc #000000 #000000 0 1;
#X obj 20 268 hsl 653 8 0 1 0 0 empty r-grain-33 empty -2 -8 0 10 #fcfcfc #000000 #000000 0 1;
#X obj 20 276 hsl 653 8 0 1 0 0 empty r-grain-34 empty -2 -8 0 10 #fcfcfc #000000 #000000 0 1;
#X obj 20 284 hsl 653 8 0 1 0 0 empty r-grain-35 empty -2 -8 0 10 #fcfcfc #000000 #000000 0 1;
#X obj 20 292 hsl 653 8 0 1 0 0 empty r-grain-36 empty -2 -8 0 10 #fcfcfc #000000 #000000 0 1;
#X obj 20 300 hsl 653 8 0 1 0 0 empty r-grain-37 empty -2 -8 0 10 #fcfcfc #000000 #000000 0 1;
#X obj 20 308 hsl 653 8 0 1 0 0 empty r-grain-38 empty -2 -8 0 10 #fcfcfc #000000 #000000 0 1;
#X obj 20 316 hsl 653 8 0 1 0 0 empty r-grain-39 empty -2 -8 0 10 #fcfcfc #000000 #000000 0 1;
#X obj 20 324 hsl 653 8 0 1 0 0 empty r-grain-40 empty -2 -8 0 10 #fcfcfc #000000 #000000 0 1;
#X obj 20 332 hsl 653 8 0 1 0 0 empty r-grain-41 empty -2 -8 0 10 #fcfcfc #000000 #000000 0 1;
#X obj 20 340 hsl 653 8 0 1 0 0 empty r-grain-42 empty -2 -8 0 10 #fcfcfc #000000 #000000 0 1;
#X obj 20 348 hsl 653 8 0 1 0 0 empty r-grain-43 empty -2 -8 0 10 #fcfcfc #000000 #000000 0 1;
#X obj 20 356 hsl 653 8 0 1 0 0 empty r-grain-44 empty -2 -8 0 10 #fcfcfc #000000 #000000 0 1;
#X obj 20 364 hsl 653 8 0 1 0 0 empty r-grain-45 empty -2 -8 0 10 #fcfcfc #000000 #000000 0 1;
#X obj 20 372 hsl 653 8 0 1 0 0 empty r-grain-46 empty -2 -8 0 10 #fcfcfc #000000 #000000 0 1;
#X obj 20 380 hsl 653 8 0 1 0 0 empty r-grain-47 empty -2 -8 0 10 #fcfcfc #000000 #000000 0 1;
#X obj 20 388 hsl 653 8 0 1 0 0 empty r-grain-48 empty -2 -8 0 10 #fcfcfc #000000 #000000 0 1;
#X obj 20 396 hsl 653 8 0 1 0 0 empty r-grain-49 empty -2 -8 0 10 #fcfcfc #000000 #000000 0 1;
#X obj 20 404 hsl 653 8 0 1 0 0 empty r-grain-50 empty -2 -8 0 10 #fcfcfc #000000 #000000 0 1;
#X obj 20 412 hsl 653 8 0 1 0 0 empty r-grain-51 empty -2 -8 0 10 #fcfcfc #000000 #000000 0 1;
#X obj 20 420 hsl 653 8 0 1 0 0 empty r-grain-52 empty -2 -8 0 10 #fcfcfc #000000 #000000 0 1;
#X obj 20 428 hsl 653 8 0 1 0 0 empty r-grain-53 empty -2 -8 0 10 #fcfcfc #000000 #000000 0 1;
#X obj 20 436 hsl 653 8 0 1 0 0 empty r-grain-54 empty -2 -8 0 10 #fcfcfc #000000 #000000 0 0;
#X obj 20 444 hsl 653 8 0 1 0 0 empty r-grain-55 empty -2 -8 0 10 #fcfcfc #000000 #000000 0 1;
#X obj 20 452 hsl 653 8 0 1 0 0 empty r-grain-56 empty -2 -8 0 10 #fcfcfc #000000 #000000 0 1;
#X obj 20 460 hsl 653 8 0 1 0 0 empty r-grain-57 empty -2 -8 0 10 #fcfcfc #000000 #000000 0 1;
#X obj 20 468 hsl 653 8 0 1 0 0 empty r-grain-58 empty -2 -8 0 10 #fcfcfc #000000 #000000 0 1;
#X obj 20 476 hsl 653 8 0 1 0 0 empty r-grain-59 empty -2 -8 0 10 #fcfcfc #000000 #000000 0 1;
#X obj 20 484 hsl 653 8 0 1 0 0 empty r-grain-60 empty -2 -8 0 10 #fcfcfc #000000 #000000 0 1;
#X obj 20 492 hsl 653 8 0 1 0 0 empty r-grain-61 empty -2 -8 0 10 #fcfcfc #000000 #000000 0 1;
#X obj 20 500 hsl 653 8 0 1 0 0 empty r-grain-62 empty -2 -8 0 10 #fcfcfc #000000 #000000 0 1;
#X obj 20 508 hsl 653 8 0 1 0 0 empty r-grain-63 empty -2 -8 0 10 #fcfcfc #000000 #000000 0 1;
#X obj 20 516 hsl 653 8 0 1 0 0 empty r-grain-64 empty -2 -8 0 10 #fcfcfc #000000 #000000 0 1;
#N canvas 0 22 450 278 (subpatch) 0;
#X array grain 2.87041e+06 float 0;
#X coords 0 1 2.87041e+06 -1 658 503 1 0 0;
#X restore 8 12 graph;
#N canvas 352 78 508 652 window-functions 1;
#X obj 182 337 phasor~ 1;
#X obj 329 186 tgl 15 0 empty empty empty 17 7 0 10 #fcfcfc #000000 #000000 0 1;
#X obj 264 220 metro 1000;
#X obj 182 385 expr~ abs((abs($v1-0.5)*2)-1);
#X obj 201 425 expr~ min($v1*2 \, 1);
#X obj 220 525 expr~ pow($v1 \, 8);
#X obj 264 242 +;
#X obj 228 226 + 1;
#X obj 264 261 sel 1;
#X msg 264 280 0;
#X obj 220 505 expr~ abs($v1-0.5)*2;
#X obj 220 545 expr~ abs($v1-1);
#X msg 71 205 normalize 1;
#X obj 210 445 expr~ abs($v1-0.5)*2;
#X obj 210 485 expr~ abs($v1-1);
#X obj 210 465 expr~ pow($v1 \, 0.5);
#X obj 329 154 loadbang;
#X text 130 385 Triangle;
#X text 169 405 Cos;
#N canvas 0 23 450 300 cosinus 0;
#X obj 173 85 inlet~;
#X obj 173 147 cos~;
#X obj 173 166 *~ 0.5;
#X obj 173 185 +~ 0.5;
#X obj 173 128 wrap~;
#X obj 173 109 +~ 0.5;
#X obj 173 207 outlet~;
#X connect 0 0 5 0;
#X connect 1 0 2 0;
#X connect 2 0 3 0;
#X connect 3 0 6 0;
#X connect 4 0 1 0;
#X connect 5 0 4 0;
#X restore 191 405 pd cosinus;
#X text 131 425 Trapazoid 1;
#X text 140 445 Trapazoid 2;
#X text 150 505 Trapazoid 3;
#X obj 200 170 t b b f;
#X obj 182 591 tabwrite~ Window;
#X obj 71 224 s Window;
#X obj 200 100 hradio 14 1 1 5 empty empty Trapazoid-2 2 8 0 10 #fcfcfc #fcc4c4 #000000 3;
#N canvas 0 22 450 300 label 0;
#X obj 129 48 inlet;
#X obj 129 70 sel 0 1 2 3 4;
#X msg 129 92 label Triangle;
#X obj 129 189 outlet;
#X msg 144 112 label Cosinus;
#X msg 159 132 label Trapazoid-1;
#X msg 174 152 label Trapazoid-2;
#X msg 189 172 label Trapazoid-3;
#X connect 0 0 1 0;
#X connect 1 0 2 0;
#X connect 1 1 4 0;
#X connect 1 2 5 0;
#X connect 1 3 6 0;
#X connect 1 4 7 0;
#X connect 2 0 3 0;
#X connect 4 0 3 0;
#X connect 5 0 3 0;
#X connect 6 0 3 0;
#X connect 7 0 3 0;
#X restore 200 70 pd label;
#X obj 71 186 del 1001;
#N canvas 515 366 592 291 spigot~ 0;
#X obj 52 40 inlet~;
#X obj 432 62 inlet;
#X obj 432 118 outlet~;
#X obj 52 102 *~;
#X obj 67 78 == 0;
#X obj 112 40 inlet~;
#X obj 112 102 *~;
#X obj 172 40 inlet~;
#X obj 172 102 *~;
#X obj 232 40 inlet~;
#X obj 232 102 *~;
#X obj 127 78 == 1;
#X obj 187 78 == 2;
#X obj 247 78 == 3;
#X obj 292 40 inlet~;
#X obj 292 102 *~;
#X obj 352 40 inlet~;
#X obj 352 102 *~;
#X obj 307 78 == 4;
#X obj 367 78 == 5;
#X connect 0 0 3 0;
#X connect 1 0 4 0;
#X connect 1 0 11 0;
#X connect 1 0 13 0;
#X connect 1 0 12 0;
#X connect 1 0 18 0;
#X connect 1 0 19 0;
#X connect 3 0 2 0;
#X connect 4 0 3 1;
#X connect 5 0 6 0;
#X connect 6 0 2 0;
#X connect 7 0 8 0;
#X connect 8 0 2 0;
#X connect 9 0 10 0;
#X connect 10 0 2 0;
#X connect 11 0 6 1;
#X connect 12 0 8 1;
#X connect 13 0 10 1;
#X connect 14 0 15 0;
#X connect 15 0 2 0;
#X connect 16 0 17 0;
#X connect 17 0 2 0;
#X connect 18 0 15 1;
#X connect 19 0 17 1;
#X restore 182 566 pd spigot~;
#X obj 315 575 sel 1;
#X obj 315 595 bng 15 250 50 0 empty empty empty 17 7 0 10 #fcfcfc #000000 #000000;
#X obj 264 201 t f f f f;
#X obj 298 300 sel 1;
#X msg 298 321 0;
#X text 112 337 1hz = 1 sec;
#X connect 0 0 3 0;
#X connect 0 0 10 0;
#X connect 0 0 13 0;
#X connect 0 0 19 0;
#X connect 1 0 32 0;
#X connect 2 0 6 0;
#X connect 3 0 4 0;
#X connect 3 0 29 0;
#X connect 4 0 29 2;
#X connect 5 0 11 0;
#X connect 6 0 7 0;
#X connect 6 0 8 0;
#X connect 7 0 6 1;
#X connect 8 0 9 0;
#X connect 9 0 1 0;
#X connect 10 0 5 0;
#X connect 11 0 29 4;
#X connect 12 0 25 0;
#X connect 13 0 15 0;
#X connect 14 0 29 3;
#X connect 15 0 14 0;
#X connect 16 0 1 0;
#X connect 19 0 29 1;
#X connect 23 0 28 0;
#X connect 23 1 1 0;
#X connect 23 2 29 6;
#X connect 26 0 27 0;
#X connect 26 0 23 0;
#X connect 27 0 26 0;
#X connect 28 0 12 0;
#X connect 29 0 24 0;
#X connect 30 0 31 0;
#X connect 30 0 24 0;
#X connect 32 0 2 0;
#X connect 32 1 6 1;
#X connect 32 2 33 0;
#X connect 32 3 30 0;
#X connect 33 0 34 0;
#X connect 34 0 0 1;
#X coords 0 -1 1 1 69 17 2 200 100;
#X restore 686 320 pd window-functions;
#N canvas 0 50 450 250 (subpatch) 0;
#X array Window 48000 float 4;
#X coords 0 1 47999 0 70 50 1 0 0;
#X restore 686 268 graph;
#N canvas 0 23 450 300 test-prev 0;
#X obj 135 157 r~ preview-audio;
#X obj 60 242 outlet~;
#X obj 27 180 tgl 15 0 empty empty empty 17 7 0 10 #fcfcfc #000000 #000000 0 1;
#N canvas 146 334 310 265 crossfade~ 0;
#X obj 139 157 *~;
#X obj 209 157 *~;
#X obj 88 118 *~ -1;
#X obj 88 140 +~ 1;
#X obj 88 83 +~;
#X obj 183 193 outlet~;
#X obj 139 103 inlet~;
#X obj 209 103 inlet~;
#X obj 88 59 vline~;
#X obj 88 15 inlet;
#X obj 88 37 pack 0 100;
#X connect 0 0 5 0;
#X connect 1 0 5 0;
#X connect 2 0 3 0;
#X connect 3 0 0 1;
#X connect 4 0 2 0;
#X connect 4 0 1 1;
#X connect 6 0 0 0;
#X connect 7 0 1 0;
#X connect 8 0 4 0;
#X connect 9 0 10 0;
#X connect 10 0 8 0;
#X restore 60 195 pd crossfade~;
#X obj 97 95 inlet~;
#X obj 27 73 r preview-auto;
#X connect 0 0 3 2;
#X connect 2 0 3 0;
#X connect 3 0 1 0;
#X connect 4 0 3 1;
#X connect 5 0 2 0;
#X restore 1745 70 pd test-prev;
#X obj 690 185 nbx 5 14 1 7 0 1 empty empty Wav-File 0 -8 0 10 #fcfcfc #000000 #000000 3 256;
#N canvas 221 23 433 373 tablemath 0;
#X obj 65 67 soundfiler;
#X obj 65 124 /;
#X obj 139 83 s size-in-samples;
#X obj 65 86 t b f;
#X obj 65 105 samplerate~;
#X obj 139 140 s speed-in-hz;
#X obj 65 25 inlet;
#X obj 14 83 outlet;
#X obj 65 146 outlet;
#X floatatom 14 121 6 0 0 0 - - - 0;
#X obj 198 245 tabplay~ grain;
#X obj 188 186 inlet;
#X obj 198 293 s~ preview-audio;
#X msg 188 312 1;
#X msg 310 312 0;
#X obj 188 338 s preview-auto;
#X obj 198 267 *~ 2;
#X obj 310 176 inlet;
#X obj 139 121 s sample-rate;
#X obj 198 217 delay 500;
#X obj 310 261 delay 500;
#X msg 65 48 read -resize +Sounds+/Audio\$1.wav grain;
#X connect 0 0 2 0;
#X connect 0 0 3 0;
#X connect 0 0 7 0;
#X connect 1 0 5 0;
#X connect 1 0 8 0;
#X connect 3 0 4 0;
#X connect 3 1 1 1;
#X connect 4 0 1 0;
#X connect 4 0 9 0;
#X connect 4 0 18 0;
#X connect 6 0 21 0;
#X connect 10 0 16 0;
#X connect 10 1 20 0;
#X connect 11 0 13 0;
#X connect 11 0 19 0;
#X connect 13 0 15 0;
#X connect 14 0 15 0;
#X connect 16 0 12 0;
#X connect 17 0 20 0;
#X connect 19 0 10 0;
#X connect 20 0 14 0;
#X connect 21 0 0 0;
#X restore 686 201 pd tablemath;
#X floatatom 686 220 10 0 0 3 Samples - - 0;
#X floatatom 755 220 10 0 0 3 Hertz - - 0;
#X obj 755 171 bng 14 250 50 0 empty empty Pr 3 8 0 8 #fcfcfc #000000 #000000;
#X obj 774 171 bng 14 250 50 0 empty empty St 3 8 0 8 #fcfcfc #000000 #000000;
#X text 11 675 Pr - Preview the clean sound \, unchanged and mute granular player., f 65;
#X text 11 712 St - Stop the preview and go back to granular player.;
#N canvas 0 23 450 300 patchstate 0;
#X obj 118 168 cputime;
#X obj 118 28 loadbang;
#X obj 118 112 metro 1000;
#X msg 118 56 1;
#X floatatom 118 84 0 0 0 0 - - - 0;
#X obj 118 140 t b b;
#X obj 118 228 * 0.1;
#X obj 118 197 int;
#X text 163 84 <-- on/off;
#X obj 118 250 outlet;
#X obj 258 207 samplerate~;
#X obj 258 187 r pd-dsp-started;
#X floatatom 209 223 7 0 0 0 - - - 0;
#X obj 258 250 outlet;
#X connect 0 0 7 0;
#X connect 1 0 3 0;
#X connect 2 0 5 0;
#X connect 3 0 4 0;
#X connect 4 0 2 0;
#X connect 5 0 0 0;
#X connect 5 1 0 1;
#X connect 6 0 9 0;
#X connect 7 0 6 0;
#X connect 10 0 12 0;
#X connect 10 0 13 0;
#X connect 11 0 10 0;
#X restore 686 347 pd patchstate;
#X floatatom 686 365 5 0 0 3 Cpu-% - - 0;
#X floatatom 761 365 5 0 0 3 S-Rate - - 0;
#X obj 1745 42 *~ 0.25;
#X obj 1745 22 clone grain 64;
#X obj 821 269 cnv 15 531 245 empty empty empty 20 12 0 14 #ffffff #000000 0;
#X obj 863 441 s note-pitch;
#X obj 1107 309 nbx 3 15 0 100 0 1 empty empty empty 0 -8 0 10 #fcfcfc #000000 #000000 2 256;
#X obj 1105 328 s random-position;
#X obj 863 328 s grain-on;
#X obj 863 308 nbx 4 18 1 64 0 1 empty empty empty 0 -8 0 10 #fcfcfc #000000 #000000 64 256;
#X obj 863 419 nbx 5 18 -1e+37 1e+37 0 1 empty empty empty 0 -8 0 10 #fcfcfc #000000 #000000 -64 256;
#X obj 942 309 hradio 17 1 1 2 empty empty empty 0 -8 0 10 #fcfcfc #000000 #000000 0;
#X obj 938 328 s saw/sine;
#X obj 1016 328 s grain-size;
#X obj 1016 309 nbx 3 17 1 2048 0 1 empty empty empty 0 -8 0 10 #fcfcfc #000000 #000000 60 256;
#X obj 951 441 s ran-pitch-am;
#X obj 951 419 nbx 4 18 0 400 0 1 empty empty empty 0 -8 0 10 #fcfcfc #000000 #000000 1 256;
#X obj 1054 441 s env-am;
#X obj 1129 401 nbx 5 20 1 100 1 1 empty empty empty 0 -8 0 10 #fcfcfc #000000 #000000 100 256;
#X obj 1129 441 s env-time;
#X obj 1054 401 nbx 3 20 0 1000 0 1 empty empty empty 0 -8 0 10 #fcfcfc #000000 #000000 0 256;
#X obj 1054 423 * 0.01;
#X obj 1129 423 * 0.01;
#X obj 1211 423 nbx 5 18 0 100 0 1 empty empty empty 0 -8 0 10 #fcfcfc #000000 #000000 0 256;
#X obj 1211 441 s p-env-prob;
#X text 11 589 I run the patch at 48khz \, but you should be able to run it at any sample rate., f 73;
#X text 11 619 The sample that comes with the patch in the ´+Sounds+ folder is 48khz!!!!, f 73;
#X text 11 639 So if you want to run it at 44.1khz \, you need to convert the sample!!!!, f 73;
#X text 11 535 Granular21 patch by Jakob Skouborg 3.2.21, f 45;
#X text 1236 271 Grain Parameters;
#X obj 821 17 cnv 15 531 245 empty empty empty 20 12 0 14 #ffffff #000000 0;
#X obj 1124 141 bng 14 250 50 0 empty empty empty 3 8 0 8 #fcfcfc #000000 #000000;
#X obj 1190 141 nbx 4 14 0 100 0 1 empty empty Ph 26 8 0 8 #fcfcfc #000000 #000000 0 256;
#N canvas 14 86 447 598 phasor-main 0;
#X obj 97 369 phasor~;
#X floatatom 248 84 5 0 0 0 - - - 0;
#X obj 201 13 r speed-in-hz;
#X obj 201 52 t b f;
#X obj 136 350 r retrig;
#X text 148 369 <<< Use same phasor for all grains;
#X obj 97 490 *~;
#X obj 253 420 nbx 4 14 0 100 0 1 empty empty empty 0 -8 0 10 #fcfcfc #000000 #000000 0 256;
#X obj 253 436 * 0.01;
#X obj 253 474 vline~;
#X obj 253 455 pack 0 500;
#X text 304 419 Main Phasor multiplyer;
#X obj 97 52 inlet;
#X obj 253 397 inlet;
#N canvas 0 23 450 300 sine/cos 0;
#X obj 127 53 inlet~;
#X obj 128 123 cos~;
#X obj 127 102 wrap~;
#X obj 128 149 *~ 0.5;
#X obj 128 171 +~ 0.5;
#X obj 128 193 outlet~;
#X obj 127 81 +~ 0;
#X connect 0 0 6 0;
#X connect 1 0 3 0;
#X connect 2 0 1 0;
#X connect 3 0 4 0;
#X connect 4 0 5 0;
#X connect 6 0 2 0;
#X restore 125 406 pd sine/cos;
#X obj 51 388 inlet;
#X floatatom 51 410 5 0 0 0 - - - 0;
#X obj 97 539 s~ phasor-main;
#X obj 377 465 * 0.01;
#X obj 377 503 vline~;
#X text 325 464 Position;
#X obj 97 519 +~;
#X obj 377 446 inlet;
#X obj 173 68 +;
#X obj 201 33 ftom;
#X obj 173 90 mtof;
#X floatatom 248 106 10 0 0 0 - - - 0;
#X obj 134 294 * -1;
#X floatatom 144 312 5 0 0 0 - - - 0;
#X obj 134 271 sel 0 1;
#X obj 97 287 f;
#X obj 134 252 t f f;
#X obj 193 236 inlet reverse;
#X obj 97 71 != -64;
#X obj 97 90 t f f;
#X obj 173 125 f;
#X obj 97 109 sel 0 1;
#X msg 97 128 0;
#X text 51 286 Reverse;
#X text 90 145 Stop = -64;
#X obj 377 484 pack 0 10;
#N canvas 515 366 396 291 spigot~ 0;
#X obj 52 40 inlet~;
#X obj 332 62 inlet;
#X obj 146 185 outlet~;
#X obj 52 102 *~;
#X obj 67 78 == 0;
#X obj 112 40 inlet~;
#X obj 112 102 *~;
#X obj 127 78 == 1;
#X connect 0 0 3 0;
#X connect 1 0 4 0;
#X connect 1 0 7 0;
#X connect 3 0 2 0;
#X connect 4 0 3 1;
#X connect 5 0 6 0;
#X connect 6 0 2 0;
#X connect 7 0 6 1;
#X restore 97 458 pd spigot~;
#N canvas 0 23 450 300 mux-spigot 0;
#X obj 126 82 inlet;
#X obj 126 143 spigot;
#X obj 159 119 == 0;
#X obj 206 82 inlet;
#X obj 206 143 spigot;
#X obj 239 119 == 1;
#X obj 276 103 inlet;
#X obj 179 189 outlet;
#X connect 0 0 1 0;
#X connect 1 0 7 0;
#X connect 2 0 1 1;
#X connect 3 0 4 0;
#X connect 4 0 7 0;
#X connect 5 0 4 1;
#X connect 6 0 5 0;
#X connect 6 0 2 0;
#X restore 97 331 pd mux-spigot;
#X floatatom 193 257 5 0 0 0 - - - 0;
#N canvas 0 23 450 300 mux-spigot 0;
#X obj 126 82 inlet;
#X obj 126 143 spigot;
#X obj 159 119 == 0;
#X obj 206 82 inlet;
#X obj 206 143 spigot;
#X obj 239 119 == 1;
#X obj 276 103 inlet;
#X obj 179 189 outlet;
#X connect 0 0 1 0;
#X connect 1 0 7 0;
#X connect 2 0 1 1;
#X connect 3 0 4 0;
#X connect 4 0 7 0;
#X connect 5 0 4 1;
#X connect 6 0 5 0;
#X connect 6 0 2 0;
#X restore 97 188 pd mux-spigot;
#X connect 0 0 14 0;
#X connect 0 0 41 0;
#X connect 2 0 24 0;
#X connect 3 0 23 0;
#X connect 3 1 23 1;
#X connect 4 0 0 1;
#X connect 6 0 21 0;
#X connect 7 0 8 0;
#X connect 8 0 10 0;
#X connect 9 0 6 1;
#X connect 10 0 9 0;
#X connect 12 0 23 0;
#X connect 12 0 33 0;
#X connect 13 0 8 0;
#X connect 14 0 41 1;
#X connect 15 0 16 0;
#X connect 15 0 41 2;
#X connect 18 0 40 0;
#X connect 19 0 21 1;
#X connect 21 0 17 0;
#X connect 22 0 18 0;
#X connect 23 0 25 0;
#X connect 23 0 1 0;
#X connect 24 0 3 0;
#X connect 25 0 26 0;
#X connect 25 0 35 0;
#X connect 27 0 28 0;
#X connect 27 0 42 1;
#X connect 29 0 30 0;
#X connect 29 1 27 0;
#X connect 30 0 42 0;
#X connect 31 0 29 0;
#X connect 31 1 42 2;
#X connect 32 0 31 0;
#X connect 32 0 43 0;
#X connect 33 0 34 0;
#X connect 34 0 36 0;
#X connect 34 1 44 2;
#X connect 35 0 44 1;
#X connect 36 0 37 0;
#X connect 36 1 35 0;
#X connect 37 0 44 0;
#X connect 40 0 19 0;
#X connect 41 0 6 0;
#X connect 42 0 0 0;
#X connect 44 0 27 0;
#X connect 44 0 30 0;
#X restore 888 204 pd phasor-main;
#X obj 878 138 nbx 4 18 -64 128 0 1 empty empty empty 0 -8 0 10 #fcfcfc #000000 #000000 -0.85 256;
#X obj 1013 138 nbx 4 19 0 100 0 1 empty empty empty 0 -8 0 10 #fcfcfc #000000 #000000 0 256;
#N canvas 0 23 450 300 phase-rst 0;
#X obj 133 79 t b;
#X obj 133 130 s retrig;
#X msg 133 111 0;
#X msg 167 94 set \$1;
#X obj 167 75 * 0.01;
#X obj 216 94 loadbang;
#X obj 133 22 inlet;
#X obj 167 43 inlet;
#X connect 0 0 2 0;
#X connect 2 0 1 0;
#X connect 3 0 2 0;
#X connect 4 0 3 0;
#X connect 5 0 2 0;
#X connect 6 0 0 0;
#X connect 7 0 4 0;
#X restore 1124 157 pd phase-rst;
#N canvas 0 22 450 300 select-wave 1;
#X obj 100 100 hradio 14 1 1 2 empty empty Saw 2 8 0 10 #fcfcfc #fcc4c4 #000000 0;
#X obj 100 119 outlet;
#N canvas 0 22 450 300 select 0;
#X obj 126 67 inlet;
#X obj 126 89 sel 0 1;
#X obj 126 156 outlet;
#X msg 126 111 label Saw;
#X msg 145 133 label Sin;
#X connect 0 0 1 0;
#X connect 1 0 3 0;
#X connect 1 1 4 0;
#X connect 3 0 2 0;
#X connect 4 0 2 0;
#X restore 100 73 pd select;
#X connect 0 0 1 0;
#X connect 0 0 2 0;
#X connect 2 0 0 0;
#X coords 0 -1 1 1 28 19 2 100 100;
#X restore 846 204 pd select-wave;
#X obj 1072 138 nbx 4 19 0 100 0 1 empty empty empty 0 -8 0 10 #fcfcfc #000000 #000000 0 256;
#X obj 933 118 tgl 14 1 empty empty empty 17 7 0 10 #fcfcfc #000000 #000000 0 1;
#X obj 933 138 s reverse;
#X msg 1013 107 0;
#X obj 1011 83 loadbang;
#X text 880 88 Speed, f 7;
#X text 1011 62 End Phase;
#X text 1081 62 Start Phase;
#X text 1212 24 Playback Parameters;
#X obj 1729 300 out~;
#X obj 1377 269 knob 50 0 1 0 1 empty empty #E4E4E4 #B7B7B7 #4D4D4D 1 0 0 0 1 270 0 0 0;
#X msg 1377 364 set \$1;
#X text 1377 244 Volume Knob;
#X obj 1377 341 line;
#X msg 1377 320 \$1 500;
#X obj 1476 269 knob 50 0 1 0 0.5 empty empty #E4E4E4 #B7B7B7 #4D4D4D 1 0 0 0 1 270 0 0 0;
#X obj 1476 341 line;
#X msg 1476 320 \$1 500;
#X msg 1476 364 gain \$1;
#X text 1476 244 Gain Knob;
#X text 863 458 Note Pitch;
#X text 951 458 Rand Pitch \; Amount;
#X text 1054 458 Envelope \; Amount;
#X text 1129 458 Envelope \; Time;
#X text 1211 458 Envelope \; Position;
#X obj 1651 300 loadbang;
#X msg 1651 324 set 1;
#X text 11 557 Modified by Jaden Thompson 23.4.26;
#X obj 1829 300 s~ display;
#X obj 1377 1 r~ display;
#X obj 1745 146 pitch.shift~;
#X obj 1377 28 hv.filters/spectrolog;
#X obj 1745 262 pan2~, f 9;
#X obj 1563 269 knob 50 -1 1 0 0 empty empty #E4E4E4 #B7B7B7 #4D4D4D 1 0 0 0 1 270 0 0 0;
#X obj 1377 387 s mas_vol;
#X obj 1476 387 s mas_gain;
#X obj 1563 364 s mas_pan;
#X obj 1563 341 line;
#X msg 1563 320 \$1 500;
#X obj 1651 351 r mas_vol;
#X obj 1651 377 r mas_gain;
#X obj 1651 262 r mas_pan;
#X text 1563 244 Panning Knob;
#X msg 1016 283 60;
#X msg 1107 283 0;
#X msg 863 283 64;
#X msg 863 393 -64;
#X msg 953 393 0;
#X msg 1056 376 0;
#X msg 1129 376 100;
#X msg 1213 401 0;
#X obj 1280 296 loadbang;
#X obj 1745 96 lowpass~ 24000;
#X obj 1745 117 else/compress~ -40 5 5 5 12 256;
#X obj 1745 202 echo.rev~ 8 1;
#X obj 1745 176 eq~ 640 0.5 3;
#X obj 1745 231 noisegate~ -200 10 10;
#X msg 1072 107 100;
#X msg 878 118 -0.85;
#X connect 67 0 147 0;
#X connect 68 0 69 0;
#X connect 69 0 70 0;
#X connect 69 1 71 0;
#X connect 72 0 69 1;
#X connect 73 0 69 2;
#X connect 76 0 77 0;
#X connect 76 1 78 0;
#X connect 79 0 67 0;
#X connect 80 0 79 0;
#X connect 83 0 84 0;
#X connect 86 0 85 0;
#X connect 87 0 82 0;
#X connect 88 0 89 0;
#X connect 91 0 90 0;
#X connect 93 0 92 0;
#X connect 95 0 99 0;
#X connect 97 0 98 0;
#X connect 98 0 94 0;
#X connect 99 0 96 0;
#X connect 100 0 101 0;
#X connect 108 0 113 0;
#X connect 109 0 113 1;
#X connect 111 0 110 1;
#X connect 112 0 110 3;
#X connect 114 0 110 0;
#X connect 115 0 110 4;
#X connect 116 0 110 2;
#X connect 116 0 117 0;
#X connect 118 0 112 0;
#X connect 118 0 115 0 32.................D....vG....A....7A...DA....;
#X connect 118 0 108 0 32.................E....7J...PA....uB...D.....;
#X connect 119 0 118 0;
#X connect 119 0 173 0;
#X connect 125 0 129 0;
#X connect 126 0 149 0;
#X connect 128 0 126 0;
#X connect 129 0 128 0;
#X connect 130 0 132 0;
#X connect 131 0 133 0;
#X connect 132 0 131 0;
#X connect 133 0 150 0;
#X connect 140 0 141 0;
#X connect 141 0 124 0;
#X connect 144 0 146 0;
#X connect 145 0 170 0;
#X connect 147 0 124 0;
#X connect 147 0 143 0;
#X connect 147 1 124 1;
#X connect 147 1 143 0;
#X connect 148 0 153 0;
#X connect 152 0 151 0;
#X connect 153 0 152 0;
#X connect 154 0 124 0;
#X connect 155 0 124 0;
#X connect 156 0 147 1;
#X connect 158 0 91 0;
#X connect 159 0 83 0;
#X connect 160 0 86 0;
#X connect 161 0 87 0;
#X connect 162 0 93 0;
#X connect 163 0 97 0;
#X connect 164 0 95 0;
#X connect 165 0 100 0;
#X connect 166 0 165 0 32.................q....v6++++J....79+++aE....;
#X connect 166 0 164 0 32.................e....n1++++G....p8+++2C....;
#X connect 166 0 163 0 32.................r....7w+++OK....e7+++2C....;
#X connect 166 0 161 0 32.................r.....l+++OK....f4+++6D....;
#X connect 166 0 162 0 32.................r....fq+++OK....35+++6D....;
#X connect 166 0 160 0 48.................M.....y+++eC....v7+++q8+++OX9+++Z++++Cl+++e3++++;
#X connect 166 0 159 0 48.................K....j5++++B....o9+++q8+++uT++++Z++++K0+++e3++++;
#X connect 166 0 158 0 48.................M....z2+++eC....88+++q8+++e99+++Z++++mu+++e3++++;
#X connect 167 0 168 0;
#X connect 168 0 145 0;
#X connect 169 0 171 0;
#X connect 170 0 169 0;
#X connect 172 0 112 0 32.................D....34+++OA....d9+++y.....;
#X connect 172 0 108 0;
#X connect 173 0 111 0;
